HIERARCHY
ROOT Hips
{
	OFFSET 0.0000 0.0000 0.0000
	CHANNELS 6 Xposition Yposition Zposition Zrotation Xrotation Yrotation
	JOINT Spine1
	{
		OFFSET -0.0137 5.0038 -0.0537
		CHANNELS 3 Zrotation Xrotation Yrotation
		JOINT Spine2
		{
			OFFSET -0.0000 7.1253 -0.0298
			CHANNELS 3 Zrotation Xrotation Yrotation
			JOINT Chest
			{
				OFFSET -0.0000 7.5501 -0.8160
				CHANNELS 3 Zrotation Xrotation Yrotation
				JOINT Neck1
				{
					OFFSET -0.1817 26.3113 -0.5533
					CHANNELS 3 Zrotation Xrotation Yrotation
					JOINT Neck2
					{
						OFFSET -0.0000 7.7094 2.3026
						CHANNELS 3 Zrotation Xrotation Yrotation
						JOINT Head
						{
							OFFSET -0.0000 6.1289 1.9537
							CHANNELS 3 Zrotation Xrotation Yrotation
							JOINT Jaw
							{
								OFFSET 0.0026 0.4756 3.0949
								CHANNELS 3 Zrotation Xrotation Yrotation
								End Site
								{
									OFFSET 0.0 1.0 0.0
								}
							}
							JOINT LeftEye
							{
								OFFSET 3.2064 5.3802 7.5869
								CHANNELS 3 Zrotation Xrotation Yrotation
								End Site
								{
									OFFSET 0.0 1.0 0.0
								}
							}
							JOINT RightEye
							{
								OFFSET -3.2224 5.3619 7.5582
								CHANNELS 3 Zrotation Xrotation Yrotation
								End Site
								{
									OFFSET 0.0 1.0 0.0
								}
							}
						}
					}
				}
				JOINT LeftShoulder
				{
					OFFSET 1.6217 23.2372 5.1134
					CHANNELS 3 Zrotation Xrotation Yrotation
					JOINT LeftArm
					{
						OFFSET 14.9198 0.0000 -5.5023
						CHANNELS 3 Zrotation Xrotation Yrotation
						JOINT LeftForeArm
						{
							OFFSET 28.7393 0.0000 -0.0026
							CHANNELS 3 Zrotation Xrotation Yrotation
							JOINT LeftHand
							{
								OFFSET 27.0940 -0.0000 0.0026
								CHANNELS 3 Zrotation Xrotation Yrotation
								JOINT LeftHandThumbEnd
								{
									OFFSET 12.2686 -3.2202 4.8331
									CHANNELS 3 Zrotation Xrotation Yrotation
									End Site
									{
										OFFSET 0.0 1.0 0.0
									}
								}
								JOINT LeftHandMiddleEnd
								{
									OFFSET 19.0120 -0.3129 -0.0340
									CHANNELS 3 Zrotation Xrotation Yrotation
									End Site
									{
										OFFSET 0.0 1.0 0.0
									}
								}
							}
						}
					}
				}
				JOINT RightShoulder
				{
					OFFSET -1.3801 23.1803 5.2142
					CHANNELS 3 Zrotation Xrotation Yrotation
					JOINT RightArm
					{
						OFFSET -15.0372 0.0000 -5.5456
						CHANNELS 3 Zrotation Xrotation Yrotation
						JOINT RightForeArm
						{
							OFFSET -28.7366 0.0000 -0.0026
							CHANNELS 3 Zrotation Xrotation Yrotation
							JOINT RightHand
							{
								OFFSET -27.1336 -0.0000 0.0026
								CHANNELS 3 Zrotation Xrotation Yrotation
								JOINT RightHandThumbEnd
								{
									OFFSET -12.2642 -3.2115 4.8040
									CHANNELS 3 Zrotation Xrotation Yrotation
									End Site
									{
										OFFSET 0.0 1.0 0.0
									}
								}
								JOINT RightHandMiddleEnd
								{
									OFFSET -19.0006 -0.3066 -0.0316
									CHANNELS 3 Zrotation Xrotation Yrotation
									End Site
									{
										OFFSET 0.0 1.0 0.0
									}
								}
							}
						}
					}
				}
			}
		}
	}
	JOINT LeftLeg
	{
		OFFSET 10.0432 -8.4345 2.5957
		CHANNELS 3 Zrotation Xrotation Yrotation
		JOINT LeftShin
		{
			OFFSET -0.0000 -43.2218 -0.8029
			CHANNELS 3 Zrotation Xrotation Yrotation
			JOINT LeftFoot
			{
				OFFSET 0.0000 -42.1551 -3.4815
				CHANNELS 3 Zrotation Xrotation Yrotation
				JOINT LeftToeBase
				{
					OFFSET 0.0000 -5.0595 13.2315
					CHANNELS 3 Zrotation Xrotation Yrotation
					End Site
					{
						OFFSET 0.0 1.0 0.0
					}
				}
			}
		}
	}
	JOINT RightLeg
	{
		OFFSET -10.0473 -8.2953 2.6203
		CHANNELS 3 Zrotation Xrotation Yrotation
		JOINT RightShin
		{
			OFFSET 0.0000 -43.3622 -0.8056
			CHANNELS 3 Zrotation Xrotation Yrotation
			JOINT RightFoot
			{
				OFFSET 0.0000 -42.1174 -3.4784
				CHANNELS 3 Zrotation Xrotation Yrotation
				JOINT RightToeBase
				{
					OFFSET -0.0000 -5.0796 13.2842
					CHANNELS 3 Zrotation Xrotation Yrotation
					End Site
					{
						OFFSET 0.0 1.0 0.0
					}
				}
			}
		}
	}
}
MOTION
Frames: 12
Frame Time: 0.033333
-0.2079 99.0570 0.7424 0.6627 -0.9876 -0.2281 -0.7115 -0.8023 -0.2513 -0.7978 -5.0005 -0.9283 0.3848 9.3562 -3.2471 1.2552 7.8620 2.5831 -0.4658 -3.4575 -0.0223 0.3654 0.3672 -1.4286 0.0046 -0.0006 -0.0584 0.7914 -10.5379 -3.9251 -0.7826 -10.5144 3.8150 -20.5728 10.8354 -11.4889 -51.8779 4.6930 -10.7028 0.0996 -0.0591 -32.0629 0.2238 -11.3510 0.5485 -15.5858 10.6917 15.5688 -60.5883 1.9239 2.4486 30.1174 6.6519 16.9830 33.3434 -35.9300 1.5009 -0.7276 -0.2526 78.8681 -98.3108 -71.7558 76.8273 15.6105 7.0488 -15.4276 49.5238 -2.7737 -4.4828 7.0526 -5.3651 10.0887 -0.0834 12.4268 -0.2551 -9.1909 -5.7073 7.0656 1.6311 1.0723 -1.9978 -9.2421 -1.2218 -9.3692 -0.0529 9.3330 0.2996 10.3879 -5.8731 -5.0349 -1.4365 1.6642 0.9115
-0.2352 99.0488 0.8163 0.6484 -0.9102 -0.2325 -0.7214 -0.8473 -0.2760 -0.7806 -5.0032 -0.8839 0.3932 9.3689 -3.2734 1.2857 7.8286 2.5918 -0.4806 -3.4849 -0.0188 0.2989 0.3035 -1.4381 0.0000 -0.0066 -0.0580 0.7840 -10.5238 -3.9227 -0.7843 -10.5089 3.8126 -20.6262 10.9102 -11.4988 -51.7886 4.5581 -10.5835 -0.0705 -0.1174 -32.0075 0.2016 -11.0335 0.4961 -15.5670 10.6783 15.5211 -60.5450 1.9568 2.3130 30.1547 6.7599 16.9392 33.4181 -35.9868 1.4425 -0.9522 -0.2878 78.5511 -97.5142 -71.7896 76.2718 15.5940 7.1265 -15.5015 49.6695 -2.7273 -4.5516 7.0710 -5.3891 10.0365 -0.0931 12.3904 -0.2904 -9.2633 -5.7490 7.0237 1.6358 1.0611 -2.0065 -9.2107 -1.2163 -9.3174 -0.0625 9.2412 0.2948 10.3964 -5.9106 -5.0832 -1.4395 1.7355 0.8935
-0.2202 99.0475 0.8644 0.6580 -0.8585 -0.2166 -0.7377 -0.8720 -0.2765 -0.7813 -5.0192 -0.8708 0.3994 9.4226 -3.2840 1.3098 7.7892 2.6263 -0.5006 -3.5280 -0.0307 0.2491 0.2906 -1.4396 -0.0005 -0.0126 -0.0521 0.7804 -10.5390 -3.9156 -0.7814 -10.5247 3.8162 -20.6104 10.9500 -11.5319 -51.7801 4.4770 -10.4355 -0.1914 -0.1743 -32.0328 0.1221 -10.8775 0.5435 -15.5945 10.6896 15.5513 -60.5496 1.9560 2.3075 30.1476 6.8194 16.9349 33.4420 -36.1236 1.3202 -1.0738 -0.2851 78.3116 -97.0461 -71.7275 75.8963 15.5983 7.1391 -15.5498 49.6747 -2.7247 -4.5840 7.0629 -5.4318 10.0191 -0.0933 12.4386 -0.3114 -9.2625 -5.8126 6.9474 1.6388 1.0989 -2.0041 -9.2476 -1.2299 -9.2672 -0.0619 9.2468 0.2731 10.4527 -5.9239 -5.0831 -1.4404 1.7965 0.8879
-0.2035 99.0311 0.9061 0.6752 -0.8183 -0.2011 -0.7615 -0.8852 -0.2763 -0.7781 -5.0391 -0.8757 0.4124 9.4763 -3.2653 1.3035 7.7761 2.6458 -0.5183 -3.5710 -0.0521 0.2227 0.2570 -1.4546 0.0004 -0.0166 -0.0498 0.7783 -10.5542 -3.9111 -0.7771 -10.5406 3.8144 -20.5757 10.9634 -11.5354 -51.8306 4.4408 -10.3542 -0.2441 -0.1938 -32.0685 0.0249 -10.6596 0.6520 -15.6335 10.6811 15.5471 -60.5858 1.9436 2.3143 30.1038 6.8886 16.9466 33.5159 -36.2747 1.1084 -1.1634 -0.2362 78.1876 -97.3362 -71.6348 76.1188 15.6127 7.1184 -15.5811 49.6242 -2.7665 -4.6108 7.0346 -5.4664 10.0123 -0.0896 12.4835 -0.3168 -9.2473 -5.8451 6.8821 1.6397 1.1158 -1.9975 -9.2951 -1.2408 -9.2464 -0.0647 9.2520 0.2465 10.5168 -5.9384 -5.0359 -1.4395 1.8339 0.8764
-0.1850 99.0124 0.9380 0.6981 -0.7876 -0.1835 -0.7798 -0.8846 -0.2723 -0.7770 -5.0591 -0.8888 0.4163 9.5251 -3.2317 1.2980 7.7488 2.6602 -0.5230 -3.5861 -0.0942 0.2174 0.1751 -1.4747 0.0013 -0.0144 -0.0473 0.7778 -10.5610 -3.9061 -0.7747 -10.5476 3.8138 -20.5531 10.9494 -11.5353 -51.8778 4.4368 -10.3164 -0.2393 -0.1899 -32.0881 -0.0948 -10.5790 0.7638 -15.6235 10.6791 15.5172 -60.5786 1.9485 2.2986 30.0543 6.9477 16.9779 33.5922 -36.4537 0.8655 -1.2443 -0.1181 78.0956 -98.4915 -71.5923 77.1951 15.6226 7.1018 -15.5953 49.5819 -2.7993 -4.6269 6.9991 -5.4743 9.9924 -0.0817 12.4996 -0.3151 -9.2432 -5.8675 6.8550 1.6404 1.1404 -1.9947 -9.3498 -1.2648 -9.2496 -0.0685 9.2889 0.2254 10.5764 -5.9508 -5.0088 -1.4389 1.8564 0.8632
-0.1449 98.9912 0.9757 0.7229 -0.7602 -0.1596 -0.8074 -0.8819 -0.2832 -0.7680 -5.0669 -0.8881 0.4136 9.5487 -3.2191 1.2908 7.7262 2.6646 -0.5357 -3.5932 -0.1078 0.2471 0.1364 -1.4804 0.0015 -0.0129 -0.0447 0.7802 -10.5613 -3.9028 -0.7764 -10.5507 3.8142 -20.5154 10.9192 -11.5092 -51.9491 4.4179 -10.2969 -0.2092 -0.1673 -32.0585 -0.2282 -10.5290 0.8622 -15.6185 10.6778 15.5039 -60.5925 1.9544 2.2665 30.0299 6.9693 17.0071 33.6348 -36.5490 0.6819 -1.3821 -0.0347 78.0721 -99.4184 -71.5673 78.0423 15.6257 7.0712 -15.6045 49.4904 -2.8190 -4.6223 6.9540 -5.4690 9.9486 -0.0743 12.5051 -0.3045 -9.2281 -5.8818 6.8630 1.6412 1.1637 -1.9984 -9.3986 -1.2878 -9.2642 -0.0670 9.3190 0.2214 10.6176 -5.9625 -5.0047 -1.4369 1.8680 0.8528
-0.1112 98.9844 1.0239 0.7539 -0.7509 -0.1380 -0.8329 -0.8666 -0.2828 -0.7600 -5.0664 -0.8996 0.3987 9.5545 -3.2048 1.2823 7.7213 2.6594 -0.5516 -3.5955 -0.0997 0.2832 0.1280 -1.4438 0.0020 -0.0101 -0.0476 0.7815 -10.5554 -3.9018 -0.7765 -10.5472 3.8073 -20.4676 10.8848 -11.4993 -52.0190 4.3941 -10.2546 -0.1804 -0.1528 -32.0385 -0.3650 -10.5026 0.9616 -15.6245 10.6708 15.4890 -60.6028 1.9626 2.2453 30.0046 6.9853 17.0149 33.6800 -36.5464 0.5593 -1.5291 -0.0012 78.0724 -100.0506 -71.5251 78.6560 15.5942 7.0551 -15.6179 49.4161 -2.8467 -4.6299 6.9113 -5.4397 9.9102 -0.0749 12.4998 -0.2944 -9.2312 -5.8884 6.8950 1.6432 1.1856 -2.0006 -9.4574 -1.3091 -9.3105 -0.0590 9.3633 0.2255 10.6480 -5.9841 -4.9860 -1.4356 1.8466 0.8516
-0.0968 98.9804 1.0591 0.7870 -0.7525 -0.1059 -0.8550 -0.8498 -0.2854 -0.7563 -5.0671 -0.9033 0.3751 9.5563 -3.1944 1.2841 7.7285 2.6465 -0.5655 -3.5943 -0.0834 0.3009 0.1646 -1.4036 0.0015 -0.0053 -0.0499 0.7810 -10.5537 -3.9042 -0.7771 -10.5467 3.8058 -20.4154 10.8852 -11.5083 -52.0705 4.3569 -10.2632 -0.1639 -0.1425 -31.9945 -0.4845 -10.5348 1.0631 -15.6314 10.6759 15.4853 -60.6289 1.9716 2.2292 29.9905 6.9981 17.0252 33.7815 -36.5617 0.3997 -1.6130 0.0075 78.0947 -100.8144 -71.4600 79.4772 15.5761 7.0493 -15.6678 49.4068 -2.8644 -4.6172 6.8822 -5.3956 9.8731 -0.0797 12.4768 -0.2953 -9.2736 -5.8914 6.9197 1.6441 1.2101 -1.9993 -9.5162 -1.3048 -9.3732 -0.0546 9.3946 0.2320 10.6489 -6.0120 -4.9792 -1.4340 1.8272 0.8486
-0.0909 98.9789 1.1146 0.8084 -0.7495 -0.0573 -0.8673 -0.8369 -0.2978 -0.7642 -5.0651 -0.8908 0.3535 9.5417 -3.2103 1.2917 7.7513 2.6478 -0.5717 -3.5813 -0.0664 0.3098 0.2360 -1.3962 0.0001 0.0031 -0.0449 0.7809 -10.5523 -3.8992 -0.7794 -10.5461 3.8108 -20.3780 10.8868 -11.5064 -52.0783 4.3367 -10.2916 -0.1489 -0.1443 -31.9744 -0.5821 -10.5398 1.1520 -15.6162 10.6988 15.5054 -60.6512 2.0097 2.2510 30.0044 7.0193 17.0558 33.8688 -36.5881 0.3003 -1.6843 0.0196 78.0810 -101.6988 -71.3951 80.4157 15.5694 7.0541 -15.7123 49.4728 -2.8730 -4.6116 6.8580 -5.3767 9.8391 -0.0823 12.4847 -0.3002 -9.3025 -5.9066 6.9285 1.6441 1.2261 -2.0011 -9.5601 -1.3002 -9.4364 -0.0493 9.4240 0.2369 10.6497 -6.0599 -4.9698 -1.4344 1.8030 0.8417
-0.0932 98.9824 1.1613 0.8259 -0.7367 -0.0090 -0.8805 -0.8315 -0.2853 -0.7739 -5.0690 -0.9069 0.3394 9.5324 -3.2215 1.2822 7.7573 2.6419 -0.5726 -3.5644 -0.0414 0.2970 0.3208 -1.4116 -0.0003 0.0070 -0.0438 0.7791 -10.5497 -3.8962 -0.7784 -10.5473 3.8105 -20.3464 10.8998 -11.5065 -52.0606 4.2557 -10.2891 -0.1536 -0.1599 -31.9649 -0.6555 -10.4656 1.2202 -15.6076 10.7189 15.5237 -60.7127 2.0277 2.2552 30.0028 7.0097 17.0958 33.9682 -36.6074 0.2104 -1.7037 0.0071 78.0633 -102.4213 -71.2887 81.1726 15.5837 7.0465 -15.7385 49.5478 -2.8854 -4.6129 6.8417 -5.3829 9.8150 -0.0879 12.5147 -0.3069 -9.3075 -5.9204 6.9144 1.6450 1.2324 -1.9956 -9.5831 -1.3057 -9.4941 -0.0436 9.4565 0.2400 10.6484 -6.1094 -4.9519 -1.4358 1.7929 0.8412
-0.0866 98.9896 1.1960 0.8332 -0.7245 0.0378 -0.8818 -0.8314 -0.2903 -0.7866 -5.0638 -0.9060 0.3320 9.5259 -3.2304 1.2576 7.7415 2.6625 -0.5735 -3.5498 -0.0445 0.2798 0.4137 -1.4568 -0.0010 0.0076 -0.0372 0.7753 -10.5394 -3.8877 -0.7761 -10.5416 3.8158 -20.3325 10.9148 -11.5112 -52.0278 4.1407 -10.2911 -0.1588 -0.1581 -31.9577 -0.7170 -10.4233 1.2257 -15.6172 10.7246 15.5433 -60.7326 2.0345 2.2633 29.9423 7.0104 17.1237 34.1686 -36.6215 0.1354 -1.7164 0.0185 78.0466 -102.9980 -71.1752 81.7469 15.5594 7.0687 -15.7353 49.6047 -2.8955 -4.6095 6.8435 -5.3903 9.8071 -0.0899 12.5284 -0.3086 -9.2945 -5.9235 6.8697 1.6439 1.2490 -1.9923 -9.5906 -1.2981 -9.5973 -0.0412 9.4516 0.2510 10.6365 -6.1367 -4.9324 -1.4375 1.8065 0.8429
-0.1038 98.9894 1.2354 0.8385 -0.7203 0.0907 -0.8773 -0.8234 -0.2699 -0.7995 -5.0610 -0.9161 0.3161 9.5162 -3.2335 1.2378 7.7152 2.6636 -0.5808 -3.5445 -0.0370 0.2622 0.5135 -1.4785 -0.0017 0.0071 -0.0316 0.7730 -10.5381 -3.8831 -0.7752 -10.5432 3.8239 -20.3205 10.9163 -11.5310 -51.9919 4.0243 -10.2566 -0.1406 -0.1554 -31.9941 -0.7936 -10.4469 1.2066 -15.6164 10.7358 15.5615 -60.7417 2.0400 2.2578 29.8685 7.0095 17.1628 34.3467 -36.6454 0.1135 -1.7190 0.0269 78.0221 -103.4047 -71.0203 82.1458 15.5454 7.0500 -15.6945 49.5990 -2.9068 -4.6122 6.8521 -5.3895 9.7928 -0.0930 12.5456 -0.3096 -9.2983 -5.9119 6.8424 1.6417 1.2487 -1.9940 -9.5937 -1.2760 -9.6958 -0.0397 9.4527 0.2595 10.6301 -6.1649 -4.9148 -1.4396 1.8006 0.8513
